<svg xmlns="http://www.w3.org/2000/svg" viewBox="0 0 84 84"><defs><style>.cls-1{fill:#ff006c;}.cls-2{fill:#fff;}</style></defs><g id="Laag_2" data-name="Laag 2"><g id="Laag_1-2" data-name="Laag 1"><path class="cls-1" d="M42,0A41.93,41.93,0,0,0,7.63,66.05L3.76,80.66a1.66,1.66,0,0,0,2,1.88l14.41-4.7A42,42,0,1,0,42,0Z"/><path class="cls-2" d="M42,21.26a2.65,2.65,0,0,0-2.58,2.64V60.1a2.58,2.58,0,1,0,5.16,0V23.9A2.65,2.65,0,0,0,42,21.26Z"/><path class="cls-2" d="M31,29a2.65,2.65,0,0,0-2.58,2.64V52.51a2.59,2.59,0,1,0,5.17,0V31.6A2.65,2.65,0,0,0,31,29Z"/><path class="cls-2" d="M53,32.6a2.65,2.65,0,0,0-2.59,2.63V48.77a2.59,2.59,0,1,0,5.17,0V35.23A2.64,2.64,0,0,0,53,32.6Z"/></g></g></svg>